<?xml version="1.0" standalone="no"?>
<!DOCTYPE svg PUBLIC "-//W3C//DTD SVG 1.1//EN" "http://www.w3.org/Graphics/SVG/1.1/DTD/svg11.dtd" >
<svg xmlns="http://www.w3.org/2000/svg">
<metadata></metadata>
<defs>
<font id="groteskiaregular" horiz-adv-x="845" >
<font-face units-per-em="2048" ascent="1536" descent="-512" />
<missing-glyph horiz-adv-x="450" />
<glyph horiz-adv-x="0" />
<glyph horiz-adv-x="682" />
<glyph unicode=" "  horiz-adv-x="450" />
<glyph unicode="&#x09;" horiz-adv-x="450" />
<glyph unicode="&#xa0;" horiz-adv-x="450" />
<glyph unicode="!" horiz-adv-x="421" d="M0 1411h211l-33 -1098h-145zM31 -4h149v211h-149v-211z" />
<glyph unicode="&#x22;" horiz-adv-x="737" d="M0 989v422h211v-422h-211zM315 989v422h211v-422h-211z" />
<glyph unicode="#" horiz-adv-x="1445" d="M0 301l37 211h211l69 391h-211l37 211h211l54 301h210l-53 -301h213l53 301h211l-53 -301h211l-37 -211h-211l-69 -391h211l-37 -211h-211l-53 -301h-211l53 301h-213l-53 -301h-211l53 301h-211zM459 512h213l69 391h-213z" />
<glyph unicode="$" d="M0 0v211h383q17 0 29 12t12 29v309q0 17 -12 29t-29 12h-172q-88 0 -149.5 61.5t-61.5 149.5v391q0 88 61.5 149.5t149.5 61.5v207h211v-207h213v-211h-383q-17 0 -29 -12t-12 -29v-309q0 -17 12 -29t29 -12h172q88 0 149.5 -61.5t61.5 -149.5v-391q0 -88 -61.5 -149.5 t-149.5 -61.5h-2v-211h-211v211h-211z" />
<glyph unicode="%" horiz-adv-x="1820" d="M0 993v211q0 88 61.5 149.5t149.5 61.5h213q88 0 149.5 -61.5t61.5 -149.5v-211q0 -88 -61.5 -149.5t-149.5 -61.5h-213q-88 0 -149.5 61.5t-61.5 149.5zM211 1034q0 -17 12 -29t29 -12h131q17 0 29 12t12 29v129q0 17 -12 29t-29 12h-131q-17 0 -29 -12t-12 -29v-129z M274 0l818 1415h243l-817 -1415h-244zM975 211v211q0 88 61.5 149.5t149.5 61.5h213q88 0 149.5 -61.5t61.5 -149.5v-211q0 -88 -61.5 -149.5t-149.5 -61.5h-213q-88 0 -149.5 61.5t-61.5 149.5zM1186 252q0 -17 12 -29t29 -12h131q17 0 29 12t12 29v129q0 17 -12 29t-29 12 h-131q-17 0 -29 -12t-12 -29v-129z" />
<glyph unicode="&#x26;" horiz-adv-x="1056" d="M0 207v315q0 106 82 172l14 11l-14 10q-82 66 -82 172v313q0 88 61.5 149.5t149.5 61.5h213q88 0 149.5 -61.5t61.5 -149.5v-180h-211v139q0 18 -11.5 29.5t-29.5 11.5h-131q-18 0 -29.5 -11.5t-11.5 -29.5v-280q0 -28 20.5 -48.5t49.5 -21.5h565v-211h-211v-391 q0 -87 -62 -149t-149 -62h-213q-87 0 -149 62t-62 149zM211 248q0 -17 12 -29t29 -12h131q17 0 29 12t12 29v350h-143q-29 0 -49.5 -20t-20.5 -48v-282z" />
<glyph unicode="'" horiz-adv-x="421" d="M0 989v422h211v-422h-211z" />
<glyph unicode="(" horiz-adv-x="862" d="M0 705q0 181 59.5 344t173.5 292q111 126 256 197q78 37 162 55v-217q-193 -62 -316.5 -248t-123.5 -423t124 -423.5t316 -248.5v-217q-84 18 -162 55q-145 71 -256 197q-114 129 -173.5 292.5t-59.5 344.5z" />
<glyph unicode=")" horiz-adv-x="862" d="M0 33q192 62 316 248.5t124 423.5t-123.5 423t-316.5 248v217q84 -18 162 -55q145 -71 256 -197q114 -129 173.5 -292t59.5 -344t-59.5 -344.5t-173.5 -292.5q-111 -126 -256 -197q-78 -37 -162 -55v217z" />
<glyph unicode="*" horiz-adv-x="1046" d="M0 586l207 119l-207 118l104 185l209 -121v239h211v-239l207 121l105 -185l-207 -118l207 -119l-105 -185l-207 121v-239h-211v239l-209 -121z" />
<glyph unicode="+" horiz-adv-x="1054" d="M0 598v211h315v317h211v-317h318v-211h-318v-315h-211v315h-315z" />
<glyph unicode="," horiz-adv-x="446" d="M0 207h236l-117 -428h-119v428z" />
<glyph unicode="-" horiz-adv-x="620" d="M0 598v211h410v-211h-410z" />
<glyph unicode="." horiz-adv-x="421" d="M0 0v211h211v-211h-211z" />
<glyph unicode="/" horiz-adv-x="1003" d="M0 -76l567 1561h226l-568 -1561h-225z" />
<glyph unicode="0" d="M0 211v993q0 88 61.5 149.5t149.5 61.5h213q88 0 149.5 -61.5t61.5 -149.5v-993q0 -88 -61.5 -149.5t-149.5 -61.5h-213q-88 0 -149.5 61.5t-61.5 149.5zM211 252q0 -17 12 -29t29 -12h131q17 0 29 12t12 29v911q0 17 -12 29t-29 12h-131q-17 0 -29 -12t-12 -29v-911z " />
<glyph unicode="1" horiz-adv-x="526" d="M0 1204v211h315v-1415h-211v1204h-104z" />
<glyph unicode="2" d="M0 0v311q0 113 72 197l327 391q25 28 25 66v198q0 17 -12 29t-29 12h-332v211h373q88 0 149.5 -61.5t61.5 -149.5v-241q0 -112 -72 -199l-327 -389q-25 -28 -25 -68v-96h424v-211h-635z" />
<glyph unicode="3" d="M0 0v211h383q17 0 29 12t12 29v280q0 29 -20.5 49.5t-49.5 20.5h-250v211h250q29 0 49.5 20.5t20.5 49.5v280q0 17 -12 29t-29 12h-383v211h424q88 0 149.5 -61.5t61.5 -149.5v-313q0 -106 -84 -174l-12 -10l12 -9q84 -68 84 -174v-313q0 -88 -61.5 -149.5t-149.5 -61.5 h-424z" />
<glyph unicode="4" d="M0 391v211l344 813h227l-342 -813h195v211h211v-813h-211v391h-424z" />
<glyph unicode="5" d="M0 0v211h383q17 0 29 12t12 29v309q0 17 -12 29t-29 12h-383v813h592v-211h-381v-391h213q88 0 149.5 -61.5t61.5 -149.5v-391q0 -88 -61.5 -149.5t-149.5 -61.5h-424z" />
<glyph unicode="6" d="M0 211v993q0 88 61.5 149.5t149.5 61.5h364v-211h-323q-17 0 -29 -12t-12 -29v-350h213q88 0 149.5 -61.5t61.5 -149.5v-391q0 -88 -61.5 -149.5t-149.5 -61.5h-213q-88 0 -149.5 61.5t-61.5 149.5zM211 252q0 -17 12 -29t29 -12h131q17 0 29 12t12 29v309q0 17 -12 29 t-29 12h-172v-350z" />
<glyph unicode="7" d="M0 1204v211h635v-213l-322 -1202h-219l324 1204h-418z" />
<glyph unicode="8" d="M0 211v313q0 105 82 174l14 9l-14 10q-82 69 -82 174v313q0 88 61.5 149.5t149.5 61.5h57h99h57q88 0 149.5 -61.5t61.5 -149.5v-313q0 -106 -84 -174l-12 -10l12 -9q84 -68 84 -174v-313q0 -88 -61.5 -149.5t-149.5 -61.5h-57h-99h-57q-88 0 -149.5 61.5t-61.5 149.5z M211 252q0 -17 12 -29t29 -12h16h99h16q17 0 29 12t12 29v280q0 29 -20.5 49.5t-49.5 20.5h-73q-29 0 -49.5 -20.5t-20.5 -49.5v-280zM211 883q0 -29 20.5 -49.5t49.5 -20.5h73q29 0 49.5 20.5t20.5 49.5v280q0 17 -12 29t-29 12h-16h-99h-16q-17 0 -29 -12t-12 -29v-280z " />
<glyph unicode="9" d="M0 813v391q0 88 61.5 149.5t149.5 61.5h213q88 0 149.5 -61.5t61.5 -149.5v-993q0 -88 -61.5 -149.5t-149.5 -61.5h-348v211h307q17 0 29 12t12 29v350h-213q-88 0 -149.5 61.5t-61.5 149.5zM211 854q0 -17 12 -29t29 -12h172v350q0 17 -12 29t-29 12h-131q-17 0 -29 -12 t-12 -29v-309z" />
<glyph unicode=":" horiz-adv-x="421" d="M0 0v211h211v-211h-211zM0 612v211h211v-211h-211z" />
<glyph unicode=";" horiz-adv-x="446" d="M0 207h236l-117 -428h-119v428zM0 612v211h211v-211h-211z" />
<glyph unicode="&#x3c;" horiz-adv-x="892" d="M0 705l682 681v-299l-383 -382l383 -383v-299z" />
<glyph unicode="=" horiz-adv-x="1054" d="M0 387v211h844v-211h-844zM0 809v211h844v-211h-844z" />
<glyph unicode="&#x3e;" horiz-adv-x="892" d="M0 23v299l383 383l-383 382v299l682 -681z" />
<glyph unicode="?" d="M0 1200v211h424q88 0 149.5 -61.5t61.5 -149.5v-391q0 -87 -62 -149t-149 -62h-109v-285h-211v394q0 42 30.5 72t72.5 30h176q17 0 29 12t12 29v309q0 18 -11.5 29.5t-29.5 11.5h-383zM104 -4v211h211v-211h-211z" />
<glyph unicode="@" horiz-adv-x="1689" d="M0 -31v1266q0 88 61.5 149.5t149.5 61.5h1057q88 0 149.5 -61.5t61.5 -149.5v-844q0 -88 -61.5 -149.5t-149.5 -61.5h-635q-88 0 -149.5 61.5t-61.5 149.5v422q0 88 61.5 149.5t149.5 61.5h424v-633h170q17 0 29 12t12 29v762q0 17 -12 29t-29 12h-975q-17 0 -29 -12 t-12 -29v-1184q0 -17 12 -29t29 -12h805v-211h-846q-88 0 -149.5 61.5t-61.5 149.5zM633 432q0 -17 12 -29t29 -12h172v422h-172q-17 0 -29 -12t-12 -29v-340z" />
<glyph unicode="A" d="M0 0v1204q0 88 61.5 149.5t149.5 61.5h213q88 0 149.5 -61.5t61.5 -149.5v-1204h-211v602h-213v-602h-211zM211 813h213v350q0 17 -12 29t-29 12h-131q-17 0 -29 -12t-12 -29v-350z" />
<glyph unicode="B" d="M0 0v1415h211h213q88 0 149.5 -61.5t61.5 -149.5v-313q0 -106 -84 -174l-12 -10l12 -9q84 -68 84 -174v-313q0 -88 -61.5 -149.5t-149.5 -61.5h-213h-211zM211 211h172q17 0 29 12t12 29v280q0 29 -20.5 49.5t-49.5 20.5h-143v-391zM211 813h143q29 0 49.5 20.5 t20.5 49.5v280q0 17 -12 29t-29 12h-172v-391z" />
<glyph unicode="C" horiz-adv-x="712" d="M0 211v993q0 88 61.5 149.5t149.5 61.5h317v-211h-276q-17 0 -29 -12t-12 -29v-911q0 -17 12 -29t29 -12h276v-211h-317q-88 0 -149.5 61.5t-61.5 149.5z" />
<glyph unicode="D" d="M0 0v1415h424q88 0 149.5 -61.5t61.5 -149.5v-993q0 -88 -61.5 -149.5t-149.5 -61.5h-424zM211 211h172q17 0 29 12t12 29v911q0 17 -12 29t-29 12h-172v-993z" />
<glyph unicode="E" horiz-adv-x="739" d="M0 0v1415h528v-211h-317v-391h317v-211h-317v-391h317v-211h-528z" />
<glyph unicode="F" horiz-adv-x="692" d="M0 0v1415h528v-211h-317v-391h317v-211h-317v-602h-211z" />
<glyph unicode="G" horiz-adv-x="819" d="M0 211v993q0 88 61.5 149.5t149.5 61.5h371v-211h-330q-17 0 -29 -12t-12 -29v-911q0 -17 12 -29t29 -12h131q17 0 29 12t12 29v561h211v-602q0 -88 -61.5 -149.5t-149.5 -61.5h-213q-88 0 -149.5 61.5t-61.5 149.5z" />
<glyph unicode="H" d="M0 0v602v211v602h211v-602h213v602h211v-602v-211v-602h-211v602h-213v-602h-211z" />
<glyph unicode="I" horiz-adv-x="421" d="M0 0v1415h211v-1415h-211z" />
<glyph unicode="J" horiz-adv-x="634" d="M0 0v211h172q17 0 29 12t12 29v1163h211v-1204q0 -88 -61.5 -149.5t-149.5 -61.5h-213z" />
<glyph unicode="K" horiz-adv-x="897" d="M0 0v1415h211v-1415h-211zM225 707l316 708h233l-330 -708l330 -707h-233z" />
<glyph unicode="L" horiz-adv-x="671" d="M0 0v1415h211v-1204h317v-211h-528z" />
<glyph unicode="M" horiz-adv-x="1069" d="M0 0v1415h213l217 -715l217 715h211v-1415h-211v694l-106 -356l-25 -74h-174l-23 74l-108 356v-694h-211z" />
<glyph unicode="N" d="M0 0v1415h213l211 -696v696h211v-1415h-213l-211 694v-694h-211z" />
<glyph unicode="O" d="M0 211v993q0 88 61.5 149.5t149.5 61.5h213q88 0 149.5 -61.5t61.5 -149.5v-993q0 -88 -61.5 -149.5t-149.5 -61.5h-213q-88 0 -149.5 61.5t-61.5 149.5zM211 252q0 -17 12 -29t29 -12h131q17 0 29 12t12 29v911q0 17 -12 29t-29 12h-131q-17 0 -29 -12t-12 -29v-911z " />
<glyph unicode="P" horiz-adv-x="819" d="M0 0v1415h424q88 0 149.5 -61.5t61.5 -149.5v-391q0 -88 -61.5 -149.5t-149.5 -61.5h-213v-602h-211zM211 813h172q17 0 29 12t12 29v309q0 17 -12 29t-29 12h-172v-391z" />
<glyph unicode="Q" d="M0 211v993q0 88 61.5 149.5t149.5 61.5h213q88 0 149.5 -61.5t61.5 -149.5v-993q0 -88 -61.5 -149.5t-149.5 -61.5h-2v-211h-211v211q-88 0 -149.5 61.5t-61.5 149.5zM211 252q0 -17 12 -29t29 -12h129q18 0 29.5 11.5t11.5 29.5l2 911q0 17 -12 29t-29 12h-131 q-17 0 -29 -12t-12 -29v-911z" />
<glyph unicode="R" horiz-adv-x="841" d="M0 0v1415h424q88 0 149.5 -61.5t61.5 -149.5v-391q0 -73 -45 -130.5t-115 -74.5l203 -608h-221l-203 602h-43v-602h-211zM211 813h172q17 0 29 12t12 29v309q0 17 -12 29t-29 12h-172v-391z" />
<glyph unicode="S" horiz-adv-x="800" d="M0 0v211h268q46 0 84.5 25t57.5 67q15 33 15 66q0 11 -2 23q-7 44 -38 79l-293 336q-72 81 -88 187q-4 27 -4 55q0 77 33 151q46 100 136 157.5t200 57.5h215v-211h-215q-47 0 -85.5 -23.5t-58.5 -66.5q-15 -33 -15 -66q0 -10 2 -22q7 -44 38 -80l295 -336 q71 -82 87 -188q4 -27 5 -52q0 -78 -35 -153q-44 -100 -134.5 -158.5t-199.5 -58.5h-268z" />
<glyph unicode="T" horiz-adv-x="798" d="M0 1204v211h635v-211h-213v-1204h-211v1204h-211z" />
<glyph unicode="U" d="M0 211v1204h211v-1163q0 -17 12 -29t29 -12h131q17 0 29 12t12 29v1163h211v-1204q0 -88 -61.5 -149.5t-149.5 -61.5h-213q-88 0 -149.5 61.5t-61.5 149.5z" />
<glyph unicode="V" horiz-adv-x="878" d="M0 1415h213l145 -1163l146 1163h211l-213 -1415h-287z" />
<glyph unicode="W" horiz-adv-x="1384" d="M0 1417h213l137 -1040l154 1038h213l153 -1001l138 1003h213l-236 -1417h-225l-150 784l-151 -784h-223z" />
<glyph unicode="X" horiz-adv-x="903" d="M0 0l258 707l-258 708h225l146 -399l143 399h225l-258 -708l258 -707h-225l-143 399l-146 -399h-225z" />
<glyph unicode="Y" horiz-adv-x="868" d="M0 1415h225l146 -399l143 399h225l-264 -727v-688h-211v688z" />
<glyph unicode="Z" d="M0 0v211v6l410 987h-410v211h635v-217l-410 -987h410v-211h-498h-137z" />
<glyph unicode="[" horiz-adv-x="632" d="M0 -215v1626h422v-211h-211v-1204h211v-211h-422z" />
<glyph unicode="\" horiz-adv-x="1003" d="M0 1485h225l568 -1561h-226z" />
<glyph unicode="]" horiz-adv-x="632" d="M0 -4h211v1204h-211v211h422v-1626h-422v211z" />
<glyph unicode="^" d="M0 1548l215 285h205l215 -285h-197l-121 164l-120 -164h-197z" />
<glyph unicode="_" d="M0 -4v211h635v-211h-635z" />
<glyph unicode="`" horiz-adv-x="630" d="M4 1733h266l150 -383h-197z" />
<glyph unicode="a" d="M0 211v360q0 88 61.5 149.5t149.5 61.5h213v170q0 18 -11.5 29.5t-29.5 11.5h-291v211h332q88 0 149.5 -61.5t61.5 -149.5v-993h-424q-87 0 -149 62t-62 149zM211 252q0 -17 12 -29t29 -12h172v360h-172q-18 0 -29.5 -11.5t-11.5 -29.5v-278z" />
<glyph unicode="b" d="M0 0v1626h211v-422h213q88 0 149.5 -61.5t61.5 -149.5v-782q0 -87 -62 -149t-149 -62h-424zM211 211h172q17 0 29 12t12 29v700q0 18 -11.5 29.5t-29.5 11.5h-172v-782z" />
<glyph unicode="c" horiz-adv-x="757" d="M0 211v782q0 88 61.5 149.5t149.5 61.5h362v-211h-321q-17 0 -29 -12t-12 -29v-700q0 -17 12 -29t29 -12h321v-211h-362q-88 0 -149.5 61.5t-61.5 149.5z" />
<glyph unicode="d" d="M0 211v782q0 88 61.5 149.5t149.5 61.5h213v422h211v-1626h-424q-87 0 -149 62t-62 149zM211 252q0 -17 12 -29t29 -12h172v782h-172q-18 0 -29.5 -11.5t-11.5 -29.5v-700z" />
<glyph unicode="e" d="M0 211v782q0 88 61.5 149.5t149.5 61.5h213q88 0 149.5 -61.5t61.5 -149.5v-495h-424v-248q0 -15 11 -27t26 -12h334v-211h-371q-87 0 -149 62t-62 149zM211 709h213v247q0 15 -11 26t-26 11h-139q-15 0 -26 -11t-11 -26v-247z" />
<glyph unicode="f" horiz-adv-x="628" d="M0 0v1415q0 88 61.5 149.5t149.5 61.5h274v-211h-233q-18 0 -29.5 -11.5t-11.5 -29.5v-170h274v-211h-274v-993h-211z" />
<glyph unicode="g" d="M0 211v782q0 88 61.5 149.5t149.5 61.5h424v-1415q0 -87 -62 -149t-149 -62h-320v211h279q17 0 29 12t12 29v170h-213q-87 0 -149 62t-62 149zM211 252q0 -17 12 -29t29 -12h172v782h-172q-18 0 -29.5 -11.5t-11.5 -29.5v-700z" />
<glyph unicode="h" d="M0 0v1626h211v-422h213q88 0 149.5 -61.5t61.5 -149.5v-993h-211v952q0 18 -11.5 29.5t-29.5 11.5h-172v-993h-211z" />
<glyph unicode="i" horiz-adv-x="421" d="M0 0v1204h211v-1204h-211zM0 1415v211h211v-211h-211z" />
<glyph unicode="j" horiz-adv-x="634" d="M0 -211h172q17 0 29 12t12 29v1374h211v-1415q0 -88 -61.5 -149.5t-149.5 -61.5h-213v211zM211 1415v211h213v-211h-213z" />
<glyph unicode="k" horiz-adv-x="888" d="M0 0v1626h211v-1626h-211zM225 602l267 602h233l-281 -602l281 -602h-233z" />
<glyph unicode="l" horiz-adv-x="421" d="M0 0v1626h211v-1626h-211z" />
<glyph unicode="m" horiz-adv-x="1269" d="M0 0v993v211h848q88 0 149.5 -61.5t61.5 -149.5v-993h-211v952q0 17 -12 29t-29 12h-172v-993h-211v952q0 17 -12 29t-29 12h-172v-993h-211z" />
<glyph unicode="n" d="M0 0v993v211h424q88 0 149.5 -61.5t61.5 -149.5v-993h-211v952q0 17 -12 29t-29 12h-172v-993h-211z" />
<glyph unicode="o" d="M0 211v782q0 88 61.5 149.5t149.5 61.5h213q88 0 149.5 -61.5t61.5 -149.5v-782q0 -87 -62 -149t-149 -62h-213q-87 0 -149 62t-62 149zM211 252q0 -17 12 -29t29 -12h131q17 0 29 12t12 29v700q0 18 -11.5 29.5t-29.5 11.5h-131q-18 0 -29.5 -11.5t-11.5 -29.5v-700z " />
<glyph unicode="p" d="M0 -422v1626h424q88 0 149.5 -61.5t61.5 -149.5v-782q0 -87 -62 -149t-149 -62h-213v-422h-211zM211 211h172q17 0 29 12t12 29v700q0 18 -11.5 29.5t-29.5 11.5h-172v-782z" />
<glyph unicode="q" d="M0 211v782q0 88 61.5 149.5t149.5 61.5h424v-1626h-211v422h-213q-87 0 -149 62t-62 149zM211 252q0 -17 12 -29t29 -12h172v782h-172q-18 0 -29.5 -11.5t-11.5 -29.5v-700z" />
<glyph unicode="r" horiz-adv-x="587" d="M0 0v993q0 88 61.5 149.5t149.5 61.5h213v-211h-172q-17 0 -29 -12t-12 -29v-952h-211z" />
<glyph unicode="s" horiz-adv-x="800" d="M0 0v211h324q66 0 94 65q5 11 7.5 25.5t-4.5 41t-28 46.5l-295 275q-74 74 -92 167q-6 31 -6 61q0 59 23 116q35 87 108 139q77 57 182 57h269v-211h-269q-67 0 -94 -63q-5 -11 -7 -25.5t4.5 -41t27.5 -46.5l293 -274q76 -73 94 -168q5 -31 6 -60q0 -61 -23 -116 q-34 -85 -108 -140q-80 -59 -182 -59h-324z" />
<glyph unicode="t" horiz-adv-x="587" d="M0 211v1204h211v-211h213v-211h-213v-741q0 -17 12 -29t29 -12h172v-211h-213q-88 0 -149.5 61.5t-61.5 149.5z" />
<glyph unicode="u" d="M0 211v993h211v-952q0 -17 12 -29t29 -12h131q17 0 29 12t12 29v952h211v-993q0 -87 -62 -149t-149 -62h-213q-87 0 -149 62t-62 149z" />
<glyph unicode="v" horiz-adv-x="886" d="M0 1204h213l149 -1046l148 1046h213l-180 -1204h-361z" />
<glyph unicode="w" horiz-adv-x="1398" d="M0 1204h213l129 -1005l168 1005h215l168 -1005l129 1005h213l-141 -1204h-361l-117 723l-114 -723h-361z" />
<glyph unicode="x" horiz-adv-x="958" d="M0 0l281 602l-281 602h233l164 -352l164 352h234l-281 -602l281 -602h-234l-164 352l-164 -352h-233z" />
<glyph unicode="y" d="M0 211v993h211v-952q0 -18 11.5 -29.5t29.5 -11.5h172v993h211v-1415q0 -88 -61.5 -149.5t-149.5 -61.5h-371v211h330q18 0 29.5 11.5t11.5 29.5v170h-213q-88 0 -149.5 61.5t-61.5 149.5z" />
<glyph unicode="z" d="M0 0v213l399 780h-399v211h635v-213l-399 -780h399v-211h-635z" />
<glyph unicode="{" horiz-adv-x="843" d="M0 598v211q88 1 149.5 63t61.5 148v180q0 88 61.5 149.5t149.5 61.5h211v-211h-170q-18 0 -29.5 -11.5t-11.5 -29.5v-139q0 -92 -38 -173.5t-105 -141.5q67 -60 105 -142t38 -176v-139q0 -17 12 -29t29 -12h170v-211h-211q-87 0 -149 62t-62 149v180q0 88 -61.5 149.5 t-149.5 61.5z" />
<glyph unicode="|" horiz-adv-x="421" d="M0 -246v1899h211v-1899h-211z" />
<glyph unicode="}" horiz-adv-x="843" d="M0 -4v211h170q17 0 29 12t12 29v139q0 94 38 176t105 142q-67 60 -105 141.5t-38 173.5v139q0 18 -11.5 29.5t-29.5 11.5h-170v211h211q88 0 149.5 -61.5t61.5 -149.5v-180q0 -86 61.5 -148t149.5 -63v-211q-88 0 -149.5 -61.5t-61.5 -149.5v-180q0 -87 -62 -149 t-149 -62h-211z" />
<glyph unicode="~" horiz-adv-x="1705" d="M0 1546v78q0 56 26.5 103.5t73.5 76.5q48 29 102.5 32.5t104.5 -21.5q7 -4 19.5 -10t38 -18.5t42.5 -20.5t17 -7v78h211v-78q0 -57 -26.5 -105t-73.5 -77q-48 -29 -102.5 -31.5t-104.5 23.5l-117 55v-78h-211z" />
<glyph unicode="&#xa1;" horiz-adv-x="421" d="M0 -4h211l-33 1098h-145zM31 1200v211h149v-211h-149z" />
<glyph unicode="&#xad;" horiz-adv-x="620" d="M0 598v211h410v-211h-410z" />
<glyph unicode="&#xb0;" horiz-adv-x="790" d="M0 1001v199q0 88 61.5 149.5t149.5 61.5h158q88 0 149.5 -61.5t61.5 -149.5v-199q0 -87 -62 -148.5t-149 -61.5h-158q-87 0 -149 61.5t-62 148.5zM211 1042q0 -17 12 -29t29 -12h76q17 0 29 12t12 29v117q0 18 -11.5 29.5t-29.5 11.5h-76q-18 0 -29.5 -11.5t-11.5 -29.5 v-117z" />
<glyph unicode="&#xb4;" horiz-adv-x="624" d="M-2 1350l149 383h267l-219 -383h-197z" />
<glyph unicode="&#xb7;" horiz-adv-x="421" d="M0 604v211h211v-211h-211z" />
<glyph unicode="&#xbf;" d="M0 207v391q0 87 62 149t149 62h108v285h211v-394q0 -42 -30 -72t-72 -30h-176q-17 0 -29 -12t-12 -29v-309q0 -18 11.5 -29.5t29.5 -11.5h383v-211h-424q-88 0 -149.5 61.5t-61.5 149.5zM319 1200v211h211v-211h-211z" />
<glyph unicode="&#xc0;" d="M0 0v1204q0 88 61.5 149.5t149.5 61.5h213q88 0 149.5 -61.5t61.5 -149.5v-1204h-211v602h-213v-602h-211zM47 1942h266l150 -381h-197zM211 813h213v350q0 17 -12 29t-29 12h-131q-17 0 -29 -12t-12 -29v-350z" />
<glyph unicode="&#xc1;" d="M0 0v1204q0 88 61.5 149.5t149.5 61.5h213q88 0 149.5 -61.5t61.5 -149.5v-1204h-211v602h-213v-602h-211zM211 813h213v350q0 17 -12 29t-29 12h-131q-17 0 -29 -12t-12 -29v-350zM219 1561l150 381h266l-219 -381h-197z" />
<glyph unicode="&#xc2;" d="M0 0v1204q0 88 61.5 149.5t149.5 61.5h213q88 0 149.5 -61.5t61.5 -149.5v-1204h-211v602h-213v-602h-211zM0 1548l215 285h205l215 -285h-197l-121 164l-120 -164h-197zM211 813h213v350q0 17 -12 29t-29 12h-131q-17 0 -29 -12t-12 -29v-350z" />
<glyph unicode="&#xc3;" d="M0 0v1204q0 88 61.5 149.5t149.5 61.5h213q88 0 149.5 -61.5t61.5 -149.5v-1204h-211v602h-213v-602h-211zM0 1546v78q0 56 26.5 103.5t73.5 76.5q48 29 102.5 32.5t104.5 -21.5q7 -4 19.5 -10t38 -18.5t42.5 -20.5t17 -7v78h211v-78q0 -57 -26.5 -105t-73.5 -77 q-48 -29 -102.5 -31.5t-104.5 23.5l-117 55v-78h-211zM211 813h213v350q0 17 -12 29t-29 12h-131q-17 0 -29 -12t-12 -29v-350z" />
<glyph unicode="&#xc4;" d="M0 0v1204q0 88 61.5 149.5t149.5 61.5h213q88 0 149.5 -61.5t61.5 -149.5v-1204h-211v602h-213v-602h-211zM53 1554v211h211v-211h-211zM211 813h213v350q0 17 -12 29t-29 12h-131q-17 0 -29 -12t-12 -29v-350zM371 1554v211h211v-211h-211z" />
<glyph unicode="&#xc8;" horiz-adv-x="739" d="M0 0v1415h528v-211h-317v-391h317v-211h-317v-391h317v-211h-528zM35 1942h266l150 -381h-197z" />
<glyph unicode="&#xc9;" horiz-adv-x="739" d="M0 0v1415h528v-211h-317v-391h317v-211h-317v-391h317v-211h-528zM104 1561l150 381h266l-219 -381h-197z" />
<glyph unicode="&#xca;" horiz-adv-x="792" d="M-53 1548l215 285h205l215 -285h-197l-121 164l-121 -164h-196zM0 0v1415h528v-211h-317v-391h317v-211h-317v-391h317v-211h-528z" />
<glyph unicode="&#xcb;" horiz-adv-x="739" d="M0 0v1415h528v-211h-317v-391h317v-211h-317v-391h317v-211h-528zM0 1554v211h211v-211h-211zM317 1554v211h211v-211h-211z" />
<glyph unicode="&#xcc;" horiz-adv-x="421" d="M-205 1942h266l150 -381h-197zM0 0v1415h211v-1415h-211z" />
<glyph unicode="&#xcd;" horiz-adv-x="421" d="M0 0v1415h211v-1415h-211zM4 1561l150 381h266l-219 -381h-197z" />
<glyph unicode="&#xce;" horiz-adv-x="421" d="M-213 1548l215 285h205l215 -285h-197l-121 164l-120 -164h-197zM0 0v1415h211v-1415h-211z" />
<glyph unicode="&#xcf;" horiz-adv-x="421" d="M-162 1554v211h211v-211h-211zM0 0v1415h211v-1415h-211zM156 1554v211h211v-211h-211z" />
<glyph unicode="&#xd1;" d="M0 0v1415h213l211 -696v696h211v-1415h-213l-211 694v-694h-211zM0 1546v78q0 56 26.5 103.5t73.5 76.5q48 29 102.5 32.5t104.5 -21.5q7 -4 19.5 -10t38 -18.5t42.5 -20.5t17 -7v78h211v-78q0 -57 -26.5 -105t-73.5 -77q-48 -29 -102.5 -31.5t-104.5 23.5l-117 55v-78 h-211z" />
<glyph unicode="&#xd2;" d="M0 211v993q0 88 61.5 149.5t149.5 61.5h213q88 0 149.5 -61.5t61.5 -149.5v-993q0 -88 -61.5 -149.5t-149.5 -61.5h-213q-88 0 -149.5 61.5t-61.5 149.5zM47 1942h266l150 -381h-197zM211 252q0 -17 12 -29t29 -12h131q17 0 29 12t12 29v911q0 17 -12 29t-29 12h-131 q-17 0 -29 -12t-12 -29v-911z" />
<glyph unicode="&#xd3;" d="M0 211v993q0 88 61.5 149.5t149.5 61.5h213q88 0 149.5 -61.5t61.5 -149.5v-993q0 -88 -61.5 -149.5t-149.5 -61.5h-213q-88 0 -149.5 61.5t-61.5 149.5zM211 252q0 -17 12 -29t29 -12h131q17 0 29 12t12 29v911q0 17 -12 29t-29 12h-131q-17 0 -29 -12t-12 -29v-911z M219 1561l150 381h266l-219 -381h-197z" />
<glyph unicode="&#xd4;" d="M0 211v993q0 88 61.5 149.5t149.5 61.5h213q88 0 149.5 -61.5t61.5 -149.5v-993q0 -88 -61.5 -149.5t-149.5 -61.5h-213q-88 0 -149.5 61.5t-61.5 149.5zM0 1548l215 285h205l215 -285h-197l-121 164l-120 -164h-197zM211 252q0 -17 12 -29t29 -12h131q17 0 29 12t12 29 v911q0 17 -12 29t-29 12h-131q-17 0 -29 -12t-12 -29v-911z" />
<glyph unicode="&#xd5;" d="M0 211v993q0 88 61.5 149.5t149.5 61.5h213q88 0 149.5 -61.5t61.5 -149.5v-993q0 -88 -61.5 -149.5t-149.5 -61.5h-213q-88 0 -149.5 61.5t-61.5 149.5zM0 1546v78q0 56 26.5 103.5t73.5 76.5q48 29 102.5 32.5t104.5 -21.5q7 -4 19.5 -10t38 -18.5t42.5 -20.5t17 -7v78 h211v-78q0 -57 -26.5 -105t-73.5 -77q-48 -29 -102.5 -31.5t-104.5 23.5l-117 55v-78h-211zM211 252q0 -17 12 -29t29 -12h131q17 0 29 12t12 29v911q0 17 -12 29t-29 12h-131q-17 0 -29 -12t-12 -29v-911z" />
<glyph unicode="&#xd6;" d="M0 211v993q0 88 61.5 149.5t149.5 61.5h213q88 0 149.5 -61.5t61.5 -149.5v-993q0 -88 -61.5 -149.5t-149.5 -61.5h-213q-88 0 -149.5 61.5t-61.5 149.5zM53 1554v211h211v-211h-211zM211 252q0 -17 12 -29t29 -12h131q17 0 29 12t12 29v911q0 17 -12 29t-29 12h-131 q-17 0 -29 -12t-12 -29v-911zM371 1554v211h211v-211h-211z" />
<glyph unicode="&#xd7;" horiz-adv-x="956" d="M0 481l223 224l-223 223l150 149l223 -223l223 223l149 -149l-223 -223l223 -224l-149 -149l-223 223l-223 -223z" />
<glyph unicode="&#xd9;" d="M0 211v1204h211v-1163q0 -17 12 -29t29 -12h131q17 0 29 12t12 29v1163h211v-1204q0 -88 -61.5 -149.5t-149.5 -61.5h-213q-88 0 -149.5 61.5t-61.5 149.5zM47 1942h266l150 -381h-197z" />
<glyph unicode="&#xda;" d="M0 211v1204h211v-1163q0 -17 12 -29t29 -12h131q17 0 29 12t12 29v1163h211v-1204q0 -88 -61.5 -149.5t-149.5 -61.5h-213q-88 0 -149.5 61.5t-61.5 149.5zM219 1561l150 381h266l-219 -381h-197z" />
<glyph unicode="&#xdb;" d="M0 211v1204h211v-1163q0 -17 12 -29t29 -12h131q17 0 29 12t12 29v1163h211v-1204q0 -88 -61.5 -149.5t-149.5 -61.5h-213q-88 0 -149.5 61.5t-61.5 149.5zM0 1548l215 285h205l215 -285h-197l-121 164l-120 -164h-197z" />
<glyph unicode="&#xdc;" d="M0 207v1204h211v-1163q0 -17 12 -29t29 -12h131q17 0 29 12t12 29v1163h211v-1204q0 -87 -62 -149t-149 -62h-213q-87 0 -149 62t-62 149zM53 1554v211h211v-211h-211zM371 1554v211h211v-211h-211z" />
<glyph unicode="&#xdd;" horiz-adv-x="827" d="M0 1415h225l146 -399l143 399h225l-264 -727v-688h-211v688zM205 1561l149 383h267l-220 -383h-196z" />
<glyph unicode="&#xe0;" d="M0 211v360q0 88 61.5 149.5t149.5 61.5h213v170q0 18 -11.5 29.5t-29.5 11.5h-291v211h332q88 0 149.5 -61.5t61.5 -149.5v-993h-424q-87 0 -149 62t-62 149zM49 1733h266l150 -383h-197zM211 252q0 -17 12 -29t29 -12h172v360h-172q-18 0 -29.5 -11.5t-11.5 -29.5v-278z " />
<glyph unicode="&#xe1;" d="M0 211v360q0 88 61.5 149.5t149.5 61.5h213v170q0 18 -11.5 29.5t-29.5 11.5h-291v211h332q88 0 149.5 -61.5t61.5 -149.5v-993h-424q-87 0 -149 62t-62 149zM211 252q0 -17 12 -29t29 -12h172v360h-172q-18 0 -29.5 -11.5t-11.5 -29.5v-278zM219 1350l150 383h266 l-219 -383h-197z" />
<glyph unicode="&#xe2;" d="M0 211v360q0 88 61.5 149.5t149.5 61.5h213v170q0 18 -11.5 29.5t-29.5 11.5h-291v211h332q88 0 149.5 -61.5t61.5 -149.5v-993h-424q-87 0 -149 62t-62 149zM0 1339l215 283h205l215 -283h-197l-121 164l-120 -164h-197zM211 252q0 -17 12 -29t29 -12h172v360h-172 q-18 0 -29.5 -11.5t-11.5 -29.5v-278z" />
<glyph unicode="&#xe3;" d="M0 211v360q0 88 61.5 149.5t149.5 61.5h213v170q0 18 -11.5 29.5t-29.5 11.5h-291v211h332q88 0 149.5 -61.5t61.5 -149.5v-993h-424q-87 0 -149 62t-62 149zM0 1335v78q0 56 26.5 103.5t73.5 76.5q48 29 102.5 32.5t104.5 -21.5q7 -4 19.5 -10t38 -18.5t42.5 -20.5 t17 -7v78h211v-78q0 -57 -26.5 -105t-73.5 -77q-48 -29 -102.5 -31.5t-104.5 23.5l-117 55v-78h-211zM211 252q0 -17 12 -29t29 -12h172v360h-172q-18 0 -29.5 -11.5t-11.5 -29.5v-278z" />
<glyph unicode="&#xe4;" d="M0 211v360q0 88 61.5 149.5t149.5 61.5h213v170q0 18 -11.5 29.5t-29.5 11.5h-291v211h332q88 0 149.5 -61.5t61.5 -149.5v-993h-424q-87 0 -149 62t-62 149zM53 1346v210h211v-210h-211zM211 252q0 -17 12 -29t29 -12h172v360h-172q-18 0 -29.5 -11.5t-11.5 -29.5v-278z M371 1346v210h211v-210h-211z" />
<glyph unicode="&#xe8;" d="M0 211v782q0 88 61.5 149.5t149.5 61.5h213q88 0 149.5 -61.5t61.5 -149.5v-495h-424v-248q0 -15 11 -27t26 -12h334v-211h-371q-87 0 -149 62t-62 149zM49 1733h266l150 -383h-197zM211 709h213v247q0 15 -11 26t-26 11h-139q-15 0 -26 -11t-11 -26v-247z" />
<glyph unicode="&#xe9;" d="M0 211v782q0 88 61.5 149.5t149.5 61.5h213q88 0 149.5 -61.5t61.5 -149.5v-495h-424v-248q0 -15 11 -27t26 -12h334v-211h-371q-87 0 -149 62t-62 149zM211 709h213v247q0 15 -11 26t-26 11h-139q-15 0 -26 -11t-11 -26v-247zM219 1350l150 383h266l-219 -383h-197z" />
<glyph unicode="&#xea;" d="M0 211v782q0 88 61.5 149.5t149.5 61.5h213q88 0 149.5 -61.5t61.5 -149.5v-495h-424v-248q0 -15 11 -27t26 -12h334v-211h-371q-87 0 -149 62t-62 149zM0 1339l215 283h205l215 -283h-197l-121 164l-120 -164h-197zM211 709h213v247q0 15 -11 26t-26 11h-139 q-15 0 -26 -11t-11 -26v-247z" />
<glyph unicode="&#xeb;" d="M0 211v782q0 88 61.5 149.5t149.5 61.5h213q88 0 149.5 -61.5t61.5 -149.5v-495h-424v-248q0 -15 11 -27t26 -12h334v-211h-371q-87 0 -149 62t-62 149zM53 1346v210h211v-210h-211zM211 709h213v247q0 15 -11 26t-26 11h-139q-15 0 -26 -11t-11 -26v-247zM371 1346v210 h211v-210h-211z" />
<glyph unicode="&#xec;" horiz-adv-x="423" d="M-203 1733h266l150 -383h-197zM0 0v1204h211v-1204h-211z" />
<glyph unicode="&#xed;" horiz-adv-x="450" d="M0 0v1204h211v-1204h-211zM4 1350l150 383h266l-219 -383h-197z" />
<glyph unicode="&#xee;" horiz-adv-x="442" d="M-213 1339l215 283h205l215 -283h-197l-121 164l-120 -164h-197zM0 0v1204h211v-1204h-211z" />
<glyph unicode="&#xef;" horiz-adv-x="415" d="M-154 1346v210h211v-210h-211zM0 0v1204h211v-1204h-211zM164 1346v210h211v-210h-211z" />
<glyph unicode="&#xf1;" d="M0 0v993v211h424q88 0 149.5 -61.5t61.5 -149.5v-993h-211v952q0 17 -12 29t-29 12h-172v-993h-211zM0 1335v78q0 56 26.5 103.5t73.5 76.5q48 29 102.5 32.5t104.5 -21.5q7 -4 19.5 -10t38 -18.5t42.5 -20.5t17 -7v78h211v-78q0 -57 -26.5 -105t-73.5 -77 q-48 -29 -102.5 -31.5t-104.5 23.5l-117 55v-78h-211z" />
<glyph unicode="&#xf2;" d="M0 211v782q0 88 61.5 149.5t149.5 61.5h213q88 0 149.5 -61.5t61.5 -149.5v-782q0 -87 -62 -149t-149 -62h-213q-87 0 -149 62t-62 149zM49 1733h266l150 -383h-197zM211 252q0 -17 12 -29t29 -12h131q17 0 29 12t12 29v700q0 18 -11.5 29.5t-29.5 11.5h-131 q-18 0 -29.5 -11.5t-11.5 -29.5v-700z" />
<glyph unicode="&#xf3;" d="M0 211v782q0 88 61.5 149.5t149.5 61.5h213q88 0 149.5 -61.5t61.5 -149.5v-782q0 -87 -62 -149t-149 -62h-213q-87 0 -149 62t-62 149zM211 252q0 -17 12 -29t29 -12h131q17 0 29 12t12 29v700q0 18 -11.5 29.5t-29.5 11.5h-131q-18 0 -29.5 -11.5t-11.5 -29.5v-700z M219 1350l150 383h266l-219 -383h-197z" />
<glyph unicode="&#xf4;" d="M0 211v782q0 88 61.5 149.5t149.5 61.5h213q88 0 149.5 -61.5t61.5 -149.5v-782q0 -87 -62 -149t-149 -62h-213q-87 0 -149 62t-62 149zM0 1339l215 283h205l215 -283h-197l-121 164l-120 -164h-197zM211 252q0 -17 12 -29t29 -12h131q17 0 29 12t12 29v700 q0 18 -11.5 29.5t-29.5 11.5h-131q-18 0 -29.5 -11.5t-11.5 -29.5v-700z" />
<glyph unicode="&#xf5;" d="M0 211v782q0 88 61.5 149.5t149.5 61.5h213q88 0 149.5 -61.5t61.5 -149.5v-782q0 -87 -62 -149t-149 -62h-213q-87 0 -149 62t-62 149zM0 1335v78q0 56 26.5 103.5t73.5 76.5q48 29 102.5 32.5t104.5 -21.5q7 -4 19.5 -10t38 -18.5t42.5 -20.5t17 -7v78h211v-78 q0 -57 -26.5 -105t-73.5 -77q-48 -29 -102.5 -31.5t-104.5 23.5l-117 55v-78h-211zM211 252q0 -17 12 -29t29 -12h131q17 0 29 12t12 29v700q0 18 -11.5 29.5t-29.5 11.5h-131q-18 0 -29.5 -11.5t-11.5 -29.5v-700z" />
<glyph unicode="&#xf6;" d="M0 211v782q0 88 61.5 149.5t149.5 61.5h213q88 0 149.5 -61.5t61.5 -149.5v-782q0 -87 -62 -149t-149 -62h-213q-87 0 -149 62t-62 149zM53 1346v210h211v-210h-211zM211 252q0 -17 12 -29t29 -12h131q17 0 29 12t12 29v700q0 18 -11.5 29.5t-29.5 11.5h-131 q-18 0 -29.5 -11.5t-11.5 -29.5v-700zM371 1346v210h211v-210h-211z" />
<glyph unicode="&#xf7;" horiz-adv-x="1054" d="M0 598h844v211h-844v-211zM315 283v211h211v-211h-211zM315 915v211h211v-211h-211z" />
<glyph unicode="&#xf9;" d="M0 211v993h211v-952q0 -17 12 -29t29 -12h131q17 0 29 12t12 29v952h211v-993q0 -87 -62 -149t-149 -62h-213q-87 0 -149 62t-62 149zM49 1733h266l150 -383h-197z" />
<glyph unicode="&#xfa;" d="M0 211v993h211v-952q0 -17 12 -29t29 -12h131q17 0 29 12t12 29v952h211v-993q0 -87 -62 -149t-149 -62h-213q-87 0 -149 62t-62 149zM219 1350l150 383h266l-219 -383h-197z" />
<glyph unicode="&#xfb;" d="M0 211v993h211v-952q0 -17 12 -29t29 -12h131q17 0 29 12t12 29v952h211v-993q0 -87 -62 -149t-149 -62h-213q-87 0 -149 62t-62 149zM0 1339l215 283h205l215 -283h-197l-121 164l-120 -164h-197z" />
<glyph unicode="&#xfc;" d="M0 211v993h211v-952q0 -17 12 -29t29 -12h131q17 0 29 12t12 29v952h211v-993q0 -88 -61.5 -149.5t-149.5 -61.5h-213q-88 0 -149.5 61.5t-61.5 149.5zM53 1346v210h211v-210h-211zM371 1346v210h211v-210h-211z" />
<glyph unicode="&#xfd;" d="M0 211v993h211v-952q0 -18 11.5 -29.5t29.5 -11.5h172v993h211v-1415q0 -88 -61.5 -149.5t-149.5 -61.5h-371v211h330q18 0 29.5 11.5t11.5 29.5v170h-213q-88 0 -149.5 61.5t-61.5 149.5zM215 1350l150 383h266l-219 -383h-197z" />
<glyph unicode="&#xff;" d="M0 211v993h211v-952q0 -18 11.5 -29.5t29.5 -11.5h172v993h211v-1415q0 -88 -61.5 -149.5t-149.5 -61.5h-371v211h330q18 0 29.5 11.5t11.5 29.5v170h-213q-88 0 -149.5 61.5t-61.5 149.5zM53 1346v210h211v-210h-211zM371 1346v210h211v-210h-211z" />
<glyph unicode="&#x178;" horiz-adv-x="827" d="M0 1415h225l146 -399l143 399h225l-264 -727v-688h-211v688zM127 1554v211h211v-211h-211zM444 1554v211h211v-211h-211z" />
<glyph unicode="&#x2c6;" d="M0 1548l215 285h205l215 -285h-197l-121 164l-120 -164h-197z" />
<glyph unicode="&#x2dc;" d="M0 1335v78q0 56 26.5 103.5t73.5 76.5q48 29 102.5 32.5t104.5 -21.5q7 -4 19.5 -10t38 -18.5t42.5 -20.5t17 -7v78h211v-78q0 -57 -26.5 -105t-73.5 -77q-48 -29 -102.5 -31.5t-104.5 23.5l-117 55v-78h-211z" />
<glyph unicode="&#x2000;" horiz-adv-x="972" />
<glyph unicode="&#x2001;" horiz-adv-x="1944" />
<glyph unicode="&#x2002;" horiz-adv-x="972" />
<glyph unicode="&#x2003;" horiz-adv-x="1944" />
<glyph unicode="&#x2004;" horiz-adv-x="648" />
<glyph unicode="&#x2005;" horiz-adv-x="486" />
<glyph unicode="&#x2006;" horiz-adv-x="324" />
<glyph unicode="&#x2007;" horiz-adv-x="324" />
<glyph unicode="&#x2008;" horiz-adv-x="243" />
<glyph unicode="&#x2009;" horiz-adv-x="388" />
<glyph unicode="&#x200a;" horiz-adv-x="108" />
<glyph unicode="&#x2010;" horiz-adv-x="620" d="M0 598v211h410v-211h-410z" />
<glyph unicode="&#x2011;" horiz-adv-x="620" d="M0 598v211h410v-211h-410z" />
<glyph unicode="&#x2012;" horiz-adv-x="620" d="M0 598v211h410v-211h-410z" />
<glyph unicode="&#x2013;" horiz-adv-x="700" d="M0 598v211h489v-211h-489z" />
<glyph unicode="&#x2014;" horiz-adv-x="1005" d="M0 598v211h795v-211h-795z" />
<glyph unicode="&#x2018;" horiz-adv-x="421" d="M0 1073v211l49 127h103l-52 -127h111v-211h-211z" />
<glyph unicode="&#x2019;" horiz-adv-x="421" d="M0 1200v211h211v-211l-51 -127h-101l50 127h-109z" />
<glyph unicode="&#x201a;" horiz-adv-x="421" d="M0 1200v211h211v-211l-51 -127h-101l50 127h-109z" />
<glyph unicode="&#x201c;" horiz-adv-x="737" d="M0 1073v211l49 127h103l-52 -127h111v-211h-211zM315 1073v211l52 127h100l-49 -127h108v-211h-211z" />
<glyph unicode="&#x201d;" horiz-adv-x="737" d="M0 1200v211h211v-211l-51 -127h-101l50 127h-109zM315 1200v211h211v-211l-49 -127h-102l51 127h-111z" />
<glyph unicode="&#x201e;" horiz-adv-x="737" d="M0 1200v211h211v-211l-51 -127h-101l50 127h-109zM315 1200v211h211v-211l-49 -127h-102l51 127h-111z" />
<glyph unicode="&#x2022;" horiz-adv-x="843" d="M0 705q0 131 92 223t223 92q132 0 225 -92t93 -223t-93 -224.5t-225 -93.5q-130 0 -222.5 93.5t-92.5 224.5z" />
<glyph unicode="&#x202f;" horiz-adv-x="388" />
<glyph unicode="&#x205f;" horiz-adv-x="486" />
<glyph unicode="&#x25fc;" horiz-adv-x="1208" d="M0 0v1208h1208v-1208h-1208z" />
</font>
</defs>
</svg>
